HIERARCHY
ROOT ETY1
{
	OFFSET 0.000000 0.000000 0.000000
	CHANNELS 6 Xposition Yposition Zposition Xrotation Yrotation Zrotation
	JOINT N_ALL
	{
		OFFSET 0.000000 0.000000 0.000000
		CHANNELS 3 Xrotation Yrotation Zrotation
		JOINT locator2
		{
			OFFSET 0.000000 0.000000 63.674999
			CHANNELS 3 Xrotation Yrotation Zrotation
			JOINT hara
			{
				OFFSET -0.000000 -0.000000 0.472500
				CHANNELS 3 Xrotation Yrotation Zrotation
				JOINT mune
				{
					OFFSET -0.000005 -0.000000 14.647499
					CHANNELS 3 Xrotation Yrotation Zrotation
					JOINT kubi
					{
						OFFSET -0.565367 0.000000 13.797264
						CHANNELS 3 Xrotation Yrotation Zrotation
						JOINT kao
						{
							OFFSET 0.709599 -0.000000 1.686798
							CHANNELS 3 Xrotation Yrotation Zrotation
							JOINT ago
							{
								OFFSET 1.521274 -0.000001 2.195969
								CHANNELS 3 Xrotation Yrotation Zrotation
								End Site
								{
									OFFSET -0.000000 0.000000 0.365990
								}
							}
							JOINT eyebrow
							{
								OFFSET 2.744157 -0.000001 4.250847
								CHANNELS 3 Xrotation Yrotation Zrotation
								End Site
								{
									OFFSET -0.000000 0.000000 0.365990
								}
							}
							JOINT lip
							{
								OFFSET 1.419795 -0.000001 0.927528
								CHANNELS 3 Xrotation Yrotation Zrotation
								End Site
								{
									OFFSET 0.365992 -0.000000 0.000000
								}
							}
						}
					}
					JOINT L_sako
					{
						OFFSET -0.472501 6.525000 10.465401
						CHANNELS 3 Xrotation Yrotation Zrotation
						JOINT L_kata
						{
							OFFSET -0.000001 5.850000 -0.581734
							CHANNELS 3 Xrotation Yrotation Zrotation
							JOINT L_hiji
							{
								OFFSET -0.483016 15.785759 -0.000015
								CHANNELS 3 Xrotation Yrotation Zrotation
								JOINT L_te
								{
									OFFSET 0.611527 17.032738 -0.013641
									CHANNELS 3 Xrotation Yrotation Zrotation
									JOINT LeftHandIndex1
									{
										OFFSET 2.549848 6.470253 0.791817
										CHANNELS 3 Xrotation Yrotation Zrotation
										JOINT LeftHandIndex2
										{
											OFFSET -0.000001 2.289848 0.000000
											CHANNELS 3 Xrotation Yrotation Zrotation
											JOINT LeftHandIndex3
											{
												OFFSET -0.000001 2.268135 0.000000
												CHANNELS 3 Xrotation Yrotation Zrotation
												End Site
												{
													OFFSET 0.000000 0.365993 0.000000
												}
											}
										}
									}
									JOINT LeftHandMiddle1
									{
										OFFSET 0.874708 6.694298 1.118919
										CHANNELS 3 Xrotation Yrotation Zrotation
										JOINT LeftHandMiddle2
										{
											OFFSET -0.000001 2.683815 0.000000
											CHANNELS 3 Xrotation Yrotation Zrotation
											JOINT LeftHandMiddle3
											{
												OFFSET -0.000001 2.217308 0.000000
												CHANNELS 3 Xrotation Yrotation Zrotation
												End Site
												{
													OFFSET -0.000000 0.365993 0.000000
												}
											}
										}
									}
									JOINT LeftHandPinky1
									{
										OFFSET -2.442180 5.931721 0.497902
										CHANNELS 3 Xrotation Yrotation Zrotation
										JOINT LeftHandPinky2
										{
											OFFSET -0.000000 2.137306 0.000000
											CHANNELS 3 Xrotation Yrotation Zrotation
											JOINT LeftHandPinky3
											{
												OFFSET -0.000000 1.836044 0.000000
												CHANNELS 3 Xrotation Yrotation Zrotation
												End Site
												{
													OFFSET 0.000000 0.365993 0.000000
												}
											}
										}
									}
									JOINT LeftHandRing1
									{
										OFFSET -0.853656 6.338440 0.870934
										CHANNELS 3 Xrotation Yrotation Zrotation
										JOINT LeftHandRing2
										{
											OFFSET -0.000001 2.531284 0.000000
											CHANNELS 3 Xrotation Yrotation Zrotation
											JOINT LeftHandRing3
											{
												OFFSET -0.000001 2.217308 0.000000
												CHANNELS 3 Xrotation Yrotation Zrotation
												End Site
												{
													OFFSET -0.000000 0.365993 0.000000
												}
											}
										}
									}
									JOINT LeftHandThumb1
									{
										OFFSET 2.594638 1.377514 -1.567856
										CHANNELS 3 Xrotation Yrotation Zrotation
										JOINT LeftHandThumb2
										{
											OFFSET 1.626614 2.409187 0.000557
											CHANNELS 3 Xrotation Yrotation Zrotation
											JOINT LeftHandThumb3
											{
												OFFSET 0.823900 2.113201 0.000290
												CHANNELS 3 Xrotation Yrotation Zrotation
												End Site
												{
													OFFSET 0.000000 0.365993 0.000000
												}
											}
										}
									}
								}
							}
						}
					}
					JOINT R_sako
					{
						OFFSET -0.472506 -6.525000 10.465546
						CHANNELS 3 Xrotation Yrotation Zrotation
						JOINT R_kata
						{
							OFFSET 0.000002 -5.850000 -0.581696
							CHANNELS 3 Xrotation Yrotation Zrotation
							JOINT R_hiji
							{
								OFFSET -0.483008 -15.785765 -0.000015
								CHANNELS 3 Xrotation Yrotation Zrotation
								JOINT R_te
								{
									OFFSET 0.611537 -17.032732 -0.013748
									CHANNELS 3 Xrotation Yrotation Zrotation
									JOINT RightHandIndex1
									{
										OFFSET 2.550124 -6.470253 0.790878
										CHANNELS 3 Xrotation Yrotation Zrotation
										JOINT RightHandIndex2
										{
											OFFSET 0.000001 -2.289848 0.000000
											CHANNELS 3 Xrotation Yrotation Zrotation
											JOINT RightHandIndex3
											{
												OFFSET 0.000001 -2.268135 0.000000
												CHANNELS 3 Xrotation Yrotation Zrotation
												End Site
												{
													OFFSET 0.000000 -0.365993 0.000000
												}
											}
										}
									}
									JOINT RightHandMiddle1
									{
										OFFSET 0.875098 -6.694302 1.118561
										CHANNELS 3 Xrotation Yrotation Zrotation
										JOINT RightHandMiddle2
										{
											OFFSET 0.000001 -2.683807 0.000000
											CHANNELS 3 Xrotation Yrotation Zrotation
											JOINT RightHandMiddle3
											{
												OFFSET 0.000001 -2.217308 0.000000
												CHANNELS 3 Xrotation Yrotation Zrotation
												End Site
												{
													OFFSET 0.000000 -0.365993 0.000000
												}
											}
										}
									}
									JOINT RightHandPinky1
									{
										OFFSET -2.442005 -5.931721 0.498680
										CHANNELS 3 Xrotation Yrotation Zrotation
										JOINT RightHandPinky2
										{
											OFFSET 0.000000 -2.137306 0.000000
											CHANNELS 3 Xrotation Yrotation Zrotation
											JOINT RightHandPinky3
											{
												OFFSET 0.000000 -1.836044 0.000000
												CHANNELS 3 Xrotation Yrotation Zrotation
												End Site
												{
													OFFSET 0.000000 -0.365993 0.000000
												}
											}
										}
									}
									JOINT RightHandRing1
									{
										OFFSET -0.853352 -6.338440 0.871170
										CHANNELS 3 Xrotation Yrotation Zrotation
										JOINT RightHandRing2
										{
											OFFSET 0.000001 -2.531284 0.000000
											CHANNELS 3 Xrotation Yrotation Zrotation
											JOINT RightHandRing3
											{
												OFFSET 0.000001 -2.217308 0.000000
												CHANNELS 3 Xrotation Yrotation Zrotation
												End Site
												{
													OFFSET 0.000000 -0.365993 0.000000
												}
											}
										}
									}
									JOINT RightHandThumb1
									{
										OFFSET 2.594098 -1.377514 -1.568817
										CHANNELS 3 Xrotation Yrotation Zrotation
										JOINT RightHandThumb2
										{
											OFFSET 1.626616 -2.409184 0.000000
											CHANNELS 3 Xrotation Yrotation Zrotation
											JOINT RightHandThumb3
											{
												OFFSET 0.823900 -2.113201 0.000000
												CHANNELS 3 Xrotation Yrotation Zrotation
												End Site
												{
													OFFSET 0.000000 -0.365993 0.000000
												}
											}
										}
									}
								}
							}
						}
					}
				}
			}
			JOINT koshi
			{
				OFFSET 0.000000 0.000000 0.000000
				CHANNELS 3 Xrotation Yrotation Zrotation
				JOINT L_momo
				{
					OFFSET 0.000005 5.033075 -8.541428
					CHANNELS 3 Xrotation Yrotation Zrotation
					JOINT L_hiza
					{
						OFFSET 0.236263 0.000015 -23.625002
						CHANNELS 3 Xrotation Yrotation Zrotation
						JOINT L_ashi
						{
							OFFSET -0.944986 0.000017 -25.908707
							CHANNELS 3 Xrotation Yrotation Zrotation
							JOINT L_ashi2
							{
								OFFSET 3.767458 0.000001 -3.875652
								CHANNELS 3 Xrotation Yrotation Zrotation
								End Site
								{
									OFFSET 0.365992 0.000000 0.000000
								}
							}
						}
					}
				}
				JOINT R_momo
				{
					OFFSET 0.000001 -5.033065 -8.541435
					CHANNELS 3 Xrotation Yrotation Zrotation
					JOINT R_hiza
					{
						OFFSET 0.236263 0.000015 -23.624998
						CHANNELS 3 Xrotation Yrotation Zrotation
						JOINT R_ashi
						{
							OFFSET -0.944986 0.000017 -25.908707
							CHANNELS 3 Xrotation Yrotation Zrotation
							JOINT R_ashi2
							{
								OFFSET 3.767459 0.000001 -3.875652
								CHANNELS 3 Xrotation Yrotation Zrotation
								End Site
								{
									OFFSET 0.365992 0.000000 0.000000
								}
							}
						}
					}
				}
			}
		}
	}
}
MOTION
Frames: 4
Frame Time: 0.041667
0.000000 0.000000 0.000000 -0.000000 0.000000 -89.999982 -0.000000 0.000000 -0.000000 -0.000000 0.000003 0.000000 -0.010998 8.226585 -0.000000 -0.739349 13.292158 1.769947 1.442009 -29.218549 0.954135 -0.681549 12.300918 0.968875 0.000006 4.999615 0.000000 0.000013 0.999851 0.000002 0.000011 -0.954486 0.000013 -19.625826 15.041227 -2.271171 -54.969458 -2.702509 -14.787713 -0.292391 -0.006357 -22.231284 -9.257601 -3.147543 -3.421589 -74.128856 11.593501 0.286372 -96.094075 0.021916 -0.019693 -96.094068 0.021909 -0.019695 -63.264286 0.010882 -0.017696 -95.047102 0.021526 -0.019750 -95.047096 0.021530 -0.019757 -84.442025 -10.119018 -0.019131 -89.056105 0.019458 -0.019798 -102.104566 0.023954 -0.019363 -75.500870 0.014827 -0.019185 -94.513829 0.021343 -0.019760 -94.513849 0.021343 -0.019764 -19.239087 1.320604 4.679935 -0.015059 -0.006946 49.512014 -0.017419 -0.010391 61.610594 19.438247 15.257463 2.261526 53.330407 -1.173358 17.579853 0.291990 -0.008817 21.738411 14.438711 -6.507082 4.036125 74.134873 11.579081 -0.305874 96.092825 0.000029 0.000059 96.094751 0.000055 0.000041 63.263821 0.000039 0.000029 95.046426 0.000062 0.000011 95.047738 0.000063 0.000019 84.440727 -10.133761 -0.000192 89.055674 0.000053 0.000042 102.105345 0.000053 0.000039 75.500549 0.000037 0.000034 94.512538 0.000065 0.000025 94.514532 0.000059 0.000022 19.238365 1.319980 -4.685553 0.000042 -0.000007 -49.511830 0.000032 -0.000032 -61.618859 0.331738 0.648331 -5.508428 5.339622 -9.794152 0.267744 -0.399199 13.589537 -0.408072 -5.235476 -3.524047 5.862823 -0.000091 -0.000038 -0.000020 -5.804351 -11.034304 -0.266088 -0.467364 13.181324 0.530922 5.829893 -1.885729 -0.545307 -0.000001 -0.000038 -0.000001 
0.000000 0.000000 0.000000 -0.000000 0.000000 -89.999982 -0.000000 0.000000 -0.000000 -0.000000 0.000003 0.000000 -0.010998 8.226585 -0.000000 -0.739349 13.292158 1.769947 1.442009 -29.218549 0.954135 -0.681549 12.300918 0.968875 0.000006 4.999615 0.000000 0.000013 0.999851 0.000002 0.000011 -0.954486 0.000013 -19.625826 15.041227 -2.271171 -54.969458 -2.702509 -14.787713 -0.292391 -0.006357 -22.231284 -9.257601 -3.147543 -3.421589 -74.128856 11.593501 0.286372 -96.094075 0.021916 -0.019693 -96.094068 0.021909 -0.019695 -63.264286 0.010882 -0.017696 -95.047102 0.021526 -0.019750 -95.047096 0.021530 -0.019757 -84.442025 -10.119018 -0.019131 -89.056105 0.019458 -0.019798 -102.104566 0.023954 -0.019363 -75.500870 0.014827 -0.019185 -94.513829 0.021343 -0.019760 -94.513849 0.021343 -0.019764 -19.239087 1.320604 4.679935 -0.015059 -0.006946 49.512014 -0.017419 -0.010391 61.610594 19.438247 15.257463 2.261526 53.330407 -1.173358 17.579853 0.291990 -0.008817 21.738411 14.438711 -6.507082 4.036125 74.134873 11.579081 -0.305874 96.092825 0.000029 0.000059 96.094751 0.000055 0.000041 63.263821 0.000039 0.000029 95.046426 0.000062 0.000011 95.047738 0.000063 0.000019 84.440727 -10.133761 -0.000192 89.055674 0.000053 0.000042 102.105345 0.000053 0.000039 75.500549 0.000037 0.000034 94.512538 0.000065 0.000025 94.514532 0.000059 0.000022 19.238365 1.319980 -4.685553 0.000042 -0.000007 -49.511830 0.000032 -0.000032 -61.618859 0.331738 0.648331 -5.508428 5.339622 -9.794152 0.267744 -0.399199 13.589537 -0.408072 -5.235476 -3.524047 5.862823 -0.000091 -0.000038 -0.000020 -5.804351 -11.034304 -0.266088 -0.467364 13.181324 0.530922 5.829893 -1.885729 -0.545307 -0.000001 -0.000038 -0.000001 
0.000000 0.000000 0.000000 -0.000000 0.000000 -89.999982 -0.000000 0.000000 -0.000000 -0.000000 0.000003 0.000000 -0.010998 8.193698 -0.000000 -0.738918 13.256936 1.769688 1.440728 -29.062619 0.950981 -0.681587 12.223696 0.968591 0.000006 4.840960 0.000001 0.000013 0.975785 0.000002 0.000011 -0.932479 0.000013 -19.586636 14.959011 -2.250939 -55.052879 -2.584368 -14.723426 -0.292392 -0.007962 -21.984907 -9.291735 -3.047661 -3.492879 -73.592481 11.129792 0.285270 -95.465308 0.021700 -0.019716 -95.465301 0.021693 -0.019717 -62.850602 0.010755 -0.017631 -94.425152 0.021312 -0.019767 -94.425145 0.021316 -0.019774 -83.889442 -9.713391 -0.019185 -88.471229 0.019257 -0.019794 -101.436499 0.023729 -0.019411 -75.005838 0.014662 -0.019141 -93.895444 0.021130 -0.019776 -93.895457 0.021130 -0.019778 -19.365765 1.306370 4.608367 -0.014929 -0.006797 48.940597 -0.017311 -0.010194 60.961207 19.393559 15.164468 2.278548 53.419784 -1.063919 17.548566 0.291993 -0.010080 21.470613 14.469380 -6.051853 4.354329 73.595869 11.115767 -0.304911 95.462685 0.000030 0.000059 95.464837 0.000052 0.000041 62.850144 0.000038 0.000027 94.424824 0.000061 0.000011 94.424708 0.000062 0.000020 83.885535 -9.728629 -0.000615 88.470860 0.000053 0.000042 101.436014 0.000053 0.000039 75.007853 0.000038 0.000033 93.895635 0.000064 0.000025 93.894993 0.000058 0.000023 19.363943 1.305561 -4.614943 0.000038 -0.000008 -48.940016 0.000034 -0.000032 -60.969581 0.332484 0.599287 -5.505627 5.337196 -9.650235 0.257227 -0.399911 13.492196 -0.407905 -5.235808 -3.509835 5.865201 -0.000091 -0.000037 -0.000020 -5.801386 -10.904313 -0.253543 -0.466646 13.105809 0.530758 5.829959 -1.881371 -0.546281 -0.000001 -0.000038 -0.000002 
0.000000 0.000000 0.000000 -0.000000 0.000000 -89.999982 -0.000000 0.000000 -0.000000 -0.000000 0.000003 0.000000 -0.010998 8.160811 -0.000000 -0.741483 13.220214 1.770952 1.438702 -28.908140 0.946095 -0.681319 12.146476 0.966844 0.000006 4.683054 0.000000 0.000013 0.952465 0.000002 0.000011 -0.911168 0.000013 -19.545093 14.876789 -2.228660 -55.138881 -2.464218 -14.662751 -0.292390 -0.009566 -21.738537 -9.331147 -2.947781 -3.564527 -73.056578 10.666987 0.285152 -94.833502 0.021485 -0.019734 -94.833502 0.021474 -0.019736 -62.436938 0.010627 -0.017565 -93.800279 0.021098 -0.019783 -93.800279 0.021101 -0.019789 -83.335131 -9.308618 -0.019119 -87.889276 0.019054 -0.019788 -100.765221 0.023501 -0.019455 -74.513150 0.014498 -0.019098 -93.274013 0.020916 -0.019789 -93.274026 0.020916 -0.019791 -19.491253 1.292563 4.536731 -0.014800 -0.006648 48.367643 -0.017202 -0.009996 60.309525 19.347657 15.069187 2.297682 53.509222 -0.952251 17.520777 0.291991 -0.012601 21.206824 14.486309 -5.595093 4.670885 73.059795 10.652978 -0.304160 94.835578 0.000027 0.000059 94.834923 0.000054 0.000042 62.436474 0.000036 0.000027 93.800245 0.000060 0.000011 93.801672 0.000062 0.000018 83.334114 -9.323610 -0.000157 87.888791 0.000051 0.000042 100.766682 0.000052 0.000039 74.512822 0.000036 0.000035 93.275754 0.000063 0.000024 93.275454 0.000058 0.000022 19.489518 1.291024 -4.542925 0.000036 -0.000004 -48.369747 0.000035 -0.000031 -60.318015 0.327756 0.550240 -5.505579 5.334531 -9.503169 0.245031 -0.400657 13.390388 -0.407731 -5.235436 -3.493814 5.866302 -0.000091 -0.000037 -0.000020 -5.798473 -10.770600 -0.241064 -0.465928 13.030295 0.530596 5.829943 -1.877077 -0.546279 -0.000001 -0.000037 -0.000002 
